<?xml version="1.0" encoding="UTF-8"?>
<svg id="Logos_v3_curvas" data-name="Logos v3 curvas" xmlns="http://www.w3.org/2000/svg" viewBox="0 0 1000 1000">
  <defs>
    <style>
      .cls-1 {
        fill: #f6f6f6;
        stroke: #f6f6f6;
        stroke-miterlimit: 10;
        stroke-width: 25px;
      }

      .cls-2 {
        fill: #1d1d1b;
      }

      .cls-3 {
        fill: #ff5900;
      }
    </style>
  </defs>
  <path class="cls-1" d="M776.87,210.81l-8.06-1.97c-13.69-3.35-40.93-10.02-52.73-12.89l-46.76-56.11c-.57-.7-1.22-1.36-1.92-1.95-.53-.46-.98-.79-1.25-.98-.91-.67-1.86-1.24-2.88-1.72-.96-.48-1.97-.87-2.98-1.13l-83.4-21.85c-2.27-.62-4.62-.76-6.97-.42-.71.09-1.41.22-2.09.4l-81.62,21.89c-.37.1-.74.21-1.1.34-.23.08-.45.16-.67.24l-80.89,31.32c-2.01.78-3.84,1.92-5.45,3.4-.52.46-1.01.95-1.45,1.47l-79.26,92.08c-5.28,2.73-15.18,8.23-37.63,20.74-10.92,6.08-22.51,12.55-32.88,18.34l-25.35,14.16c-6.38,3.6-10.68,10.08-11.48,17.18-.9,7.37,1.85,14.74,7.28,19.6l38.83,35.47c1.09,3.63,2.15,13.17,1.8,37.33-.06,2.69-.09,5.08-.09,6.99v2.08c0,.41.02.82.05,1.22.79,32.64,15.35,276.52,271.58,324.72,2.18,10.84,6.63,26.62,15.66,43.99,14.46,27.88,43.9,64.85,102.01,82.8,2.51.84,4.57.84,5.31.84,6.58,0,12.48-3.65,15.4-9.53.08-.15.15-.31.22-.46,3.44-7.56,1-16.5-5.98-21.36-18.38-12.45-16.07-31.98-10.77-62.82,3.17-18.55,6.91-40.4.06-59.14,15.5-10.14,24.34-30.13,33.65-51.16,15.65-35.33,25.11-51.44,43.98-46.64,9.06,2.37,18.21-2.82,20.8-11.79,2.6-8.96-2.29-18.23-11.02-21.06-.72-.24-71.99-23.57-127.73,4.98-21.6,11.04-37.96,28.08-48.8,50.78-12.94-6.92-32.45-19.52-49.8-39.58-48.03-55.45-45.04-126.82-33.31-178.48,3.54-3.56,9.64-10.19,21.51-23.8l.1,12.73c0,1.91.33,3.82.95,5.6.18.52.46,1.2.71,1.74.57,1.21,1.27,2.35,2.15,3.46.16.2.37.45.59.69.56.65,1.21,1.29,1.84,1.82.59.49,1.27.97,1.96,1.38.64.4,1.3.75,2.06,1.11.78.35,1.57.64,2.25.83.88.28,1.75.47,2.63.58.64.08,1.6.15,2.24.15,1.71,0,3.4-.26,5.15-.81.49-.14.98-.31,1.44-.49.29-.12.58-.24.86-.38l54.16-25.69c.68-.32,1.35-.71,1.98-1.13,1-.64,1.89-1.35,2.56-2.02.45-.43,1.05-1.09,1.45-1.57.85-1.03,1.55-2.13,2.3-3.67.12-.25.23-.5.34-.76.29-.69.55-1.42.73-2.12l23.62-89.58c11.26-3.47,33.16-11.04,79.36-27.72,41.88-15.11,84.11-30.7,85.91-31.37,1.7-.63,3.28-1.51,4.7-2.63.02-.02.05-.04.07-.06.13-.1.27-.21.4-.32.33-.28.65-.57.95-.87h0c.14-.14.27-.28.4-.42,1.07-1.12,1.99-2.39,2.77-3.84.27-.5.56-1.15.78-1.7.02-.04.03-.08.05-.11.35-.88.62-1.79.83-2.79.21-.92.34-1.87.39-2.81l.75-17.15c.35-8.24-5.22-15.65-13.25-17.62Z"/>
  <g>
    <path class="cls-2" d="M359.68,278.65c-16.33,0-29.22-.05-30.95-.21-.85-.08-1.59-.63-1.92-1.42-.32-.8-.17-1.71.39-2.35l80.89-93.96c.55-.64,1.4-.93,2.23-.74.82.18,1.48.8,1.71,1.61l26.96,93.96c.2.69.06,1.43-.37,2.01-.43.57-1.11.91-1.82.92-2.75.01-46.12.2-77.12.2ZM333.84,273.98c16.12.19,68.6.03,99.91-.11l-24.96-86.97-74.96,87.08Z"/>
    <path class="cls-2" d="M436.79,278.45s-.1,0-.15,0c-.97-.06-1.79-.73-2.06-1.66l-26.96-93.96c-.33-1.14.27-2.34,1.37-2.77l80.89-31.32c.86-.34,1.84-.12,2.48.55.64.66.82,1.65.45,2.5l-53.92,125.29c-.36.85-1.19,1.39-2.1,1.39ZM412.61,183.57l24.61,85.78,49.23-114.37-73.84,28.59Z"/>
    <path class="cls-2" d="M542.32,246.75c-.83,0-1.6-.45-2.01-1.19l-51.61-93.59c-.34-.62-.38-1.36-.1-2.01s.84-1.13,1.52-1.32l81.62-21.89c.78-.21,1.63.01,2.21.59.58.57.81,1.41.61,2.2l-10.83,42.17-19.18,73.32c-.24.91-1,1.58-1.94,1.69-.09.01-.19.02-.28.02ZM494.13,152.32l47.42,86,17.73-67.75,9.85-38.36-75,20.12Z"/>
    <path class="cls-2" d="M598.56,215.8h-.03c-.65,0-1.27-.29-1.7-.78l-37.06-42.36c-.5-.57-.68-1.35-.5-2.08l10.83-42.17c.15-.59.53-1.1,1.06-1.4.53-.31,1.15-.4,1.74-.24l83.55,21.89c.78.2,1.39.8,1.62,1.57.23.77.03,1.6-.51,2.19l-57.32,62.64c-.43.48-1.05.75-1.69.75ZM564.02,170.55l34.58,39.52,53.03-57.95-77.64-20.34-9.96,38.77Z"/>
    <path class="cls-2" d="M542.32,246.75c-.5,0-1-.16-1.41-.49-.72-.56-1.04-1.5-.81-2.39l19.18-73.31c.22-.82.87-1.46,1.69-1.65.83-.19,1.69.08,2.25.72l37.06,42.36c.46.52.65,1.23.53,1.91-.12.68-.54,1.27-1.15,1.61l-56.24,30.95c-.35.19-.73.29-1.11.29ZM562.62,175.92l-16.74,63.96,49.07-27.01-32.34-36.96Z"/>
    <path class="cls-2" d="M598.56,308.2c-.21,0-.42-.03-.63-.09-.98-.28-1.66-1.18-1.66-2.21v-92.39c0-.57.21-1.13.6-1.55l57.32-62.64c.45-.49,1.1-.83,1.74-.74.66.01,1.28.32,1.71.82l50.53,60.62c.49.59.66,1.39.43,2.13s-.8,1.32-1.55,1.54l-59.45,17.53-47.09,75.89c-.43.69-1.17,1.09-1.95,1.09ZM600.85,214.4v83.46l43.31-69.8c.3-.48.76-.83,1.3-.99l56.95-16.79-46.61-55.93-54.95,60.05Z"/>
    <path class="cls-2" d="M517.68,372.41c-.12,0-.23-.01-.35-.03-.78-.12-1.45-.64-1.76-1.37l-26.63-62.27c-.33-.78-.21-1.68.33-2.34l51.27-63.38c.42-.52,1.05-.83,1.71-.85.65.02,1.31.25,1.76.74l56.24,61.44c.46.51.68,1.19.58,1.87s-.49,1.28-1.08,1.64l-53.61,32.7-26.73,31.05c-.44.51-1.08.8-1.74.8ZM493.7,308.21l24.64,57.62,24.56-28.53c.16-.18.34-.34.54-.46l51.54-31.44-52.56-57.42-48.73,60.24Z"/>
    <path class="cls-2" d="M382.87,341.09c-.77,0-1.5-.39-1.93-1.06-.55-.85-.47-1.96.19-2.73l53.92-62.64c.29-.33.66-.58,1.08-.7l105.53-31.69c.96-.29,2,.08,2.56.92.56.84.51,1.94-.12,2.72l-51.27,63.38c-.3.37-.7.63-1.15.76l-108.18,30.95c-.21.06-.42.09-.63.09ZM438.09,278.15l-48.49,56.33,100.12-28.64,46.15-57.05-97.78,29.36Z"/>
    <path class="cls-2" d="M518.17,433.35c-.53,0-1.06-.19-1.48-.55-.69-.58-.97-1.51-.72-2.38l26.47-92.26c.27-.94,1.1-1.6,2.07-1.66.94-.05,1.87.51,2.25,1.41l27.7,66.57c.47,1.13-.03,2.43-1.13,2.95l-54.17,25.69c-.31.15-.65.22-.98.22ZM545.03,345.72l-23.26,81.09,47.61-22.57-24.34-58.51Z"/>
    <path class="cls-2" d="M598.49,308.2c-.79,0-1.06-.21-1.34-.45-.63-.51-.97-1.37-.85-2.17.04-.31.15-.62.32-.88l47.55-76.63c.47-.76,1.34-1.19,2.23-1.07,4.88.59,119.52,14.56,125.96,15.57,1.03.16,1.82,1,1.93,2.04s-.51,2.02-1.49,2.38c-.43.16-43.23,15.97-85.79,31.32-71.19,25.69-85,29.89-88.51,29.89ZM647.29,231.72l-43.98,70.87c20.28-6.04,100.33-35.02,159.17-56.7-27.04-3.42-103.65-12.77-115.19-14.17Z"/>
    <path class="cls-2" d="M772,247.12c-.09,0-.19,0-.28-.02l-125.89-15.56c-1.08-.13-1.91-1.01-2-2.09-.09-1.08.59-2.08,1.64-2.39l60.29-17.78c.38-.11.78-.12,1.17-.03,2.69.63,63.76,15.58,66.36,16.22,1.06.26,1.79,1.24,1.75,2.33l-.75,17.13c-.03.64-.32,1.24-.81,1.65-.42.35-.94.54-1.48.54ZM657.34,228.35l112.47,13.9.56-12.77c-9.99-2.44-57.68-14.12-63.91-15.62l-49.12,14.48Z"/>
    <path class="cls-2" d="M439.68,435.13c-.76,0-1.48-.38-1.9-1.01-.43-.64-.51-1.44-.22-2.15l51.36-124.99c.35-.86,1.19-1.42,2.12-1.42h0c.93,0,1.76.56,2.12,1.41,9.71,23.42,24.69,59.07,26.33,61.76.33.44.78,1.34.26,2.6-1.52,3.66-21.4,26.69-27.45,33.66-26.08,30.01-27.35,30.07-28.54,30.07l-24.07.07h0ZM491.06,313.85l-47.95,116.68,19.94-.06c6-5.11,47.42-53.05,52.1-60.27-1.73-3.46-6.97-15.14-24.09-56.35ZM515.56,371c.09.23.24.47.44.69-.08-.08-.2-.24-.44-.69Z"/>
    <path class="cls-2" d="M518.17,433.35c-.1,0-.21,0-.31-.02-1.13-.15-1.97-1.12-1.98-2.25l-.49-60.94c0-.55.19-1.09.55-1.51l26.96-31.32c.7-.82,1.88-1.04,2.83-.52.95.51,1.41,1.61,1.11,2.65l-26.47,92.26c-.28.99-1.19,1.66-2.2,1.66ZM519.97,370.96l.36,44.24,19.21-66.97-19.57,22.74Z"/>
    <path class="cls-2" d="M572.33,407.66c-.92,0-1.76-.55-2.12-1.41l-27.7-66.57c-.43-1.04-.04-2.25.92-2.84l53.92-32.89c.8-.49,1.82-.44,2.56.12.75.56,1.09,1.52.85,2.42l-26.23,99.47c-.25.95-1.08,1.63-2.06,1.7-.05,0-.11,0-.16,0ZM547.51,339.73l24.34,58.5,23.04-87.4-47.38,28.9Z"/>
    <path class="cls-2" d="M436.79,278.45c-.64,0-1.27-.27-1.71-.77-.59-.66-.75-1.61-.39-2.43l53.92-125.29c.35-.8,1.12-1.34,1.99-1.38.88,0,1.7.42,2.12,1.18l51.61,93.59c.33.61.38,1.33.11,1.97-.26.64-.8,1.13-1.46,1.33l-105.53,31.69c-.22.07-.44.1-.66.1ZM490.97,156.07l-50.13,116.47,98.1-29.46-47.97-87.01Z"/>
    <path class="cls-2" d="M301.98,372.36c-.55,0-1.09-.2-1.52-.59-.63-.58-.88-1.46-.64-2.28l26.96-93.96c.28-.96,1.16-1.63,2.16-1.63h107.85c.88,0,1.68.51,2.04,1.31.37.8.23,1.74-.34,2.4l-53.92,62.64c-.24.28-.55.49-.89.63l-80.89,31.32c-.26.1-.54.15-.81.15ZM330.64,278.4l-25.25,87.99,76.14-29.48,50.36-58.5h-101.25Z"/>
    <path class="cls-2" d="M598.56,308.2c-.63,0-1.25-.26-1.69-.74l-56.24-61.44c-.48-.52-.69-1.23-.57-1.92.11-.69.54-1.3,1.16-1.63l56.24-30.95c.71-.39,1.58-.38,2.27.04.7.41,1.13,1.16,1.13,1.97v92.39c0,.94-.58,1.79-1.46,2.14-.27.1-.55.16-.83.16ZM545.98,245.06l50.29,54.94v-82.61l-50.29,27.67Z"/>
    <path class="cls-2" d="M439.68,435.13c-.8,0-1.55-.42-1.96-1.11l-56.82-94.04c-.37-.61-.43-1.36-.17-2.02s.82-1.17,1.5-1.37l108.18-30.95c.84-.24,1.75.02,2.34.68.59.65.75,1.59.41,2.4l-51.36,124.99c-.33.8-1.08,1.35-1.94,1.41-.06,0-.12,0-.18,0ZM386.38,340.17l52.91,87.58,47.84-116.41-100.75,28.82Z"/>
    <ellipse class="cls-2" cx="598.56" cy="213.51" rx="11.13" ry="11.17" transform="translate(-36.69 195.57) rotate(-18.01)"/>
    <ellipse class="cls-3" cx="541.75" cy="244.83" rx="8.66" ry="8.7" transform="translate(-49.16 179.54) rotate(-18.01)"/>
    <ellipse class="cls-3" cx="436.79" cy="276.15" rx="8.66" ry="8.7" transform="translate(-63.99 148.62) rotate(-18.01)"/>
    <ellipse class="cls-3" cx="491.05" cy="307.84" rx="8.66" ry="8.7" transform="translate(-71.13 166.95) rotate(-18.01)"/>
    <ellipse class="cls-3" cx="544.64" cy="340.58" rx="8.66" ry="8.7" transform="translate(-78.63 185.13) rotate(-18.01)"/>
    <path class="cls-2" d="M439.68,435.13c-.32,0-.64-.07-.95-.21l-137.7-62.72c-.84-.38-1.37-1.23-1.34-2.15.03-.92.6-1.74,1.46-2.07l80.89-31.32c1.03-.4,2.21,0,2.79.95l56.82,94.04c.52.86.42,1.96-.25,2.71-.45.5-1.07.77-1.71.77ZM307.89,370.29l126,57.39-51.99-86.05-74.01,28.66Z"/>
    <ellipse class="cls-3" cx="384.26" cy="338.8" rx="8.66" ry="8.7" transform="translate(-85.94 135.44) rotate(-18.01)"/>
    <path class="cls-3" d="M385.13,361.16c-.17.31-.51.51-.87.51l-33.08-.17c-.48,0-.9-.34-.98-.84-.08-.48.2-.93.65-1.1l23.46-8.78c.34-.11.73-.06,1.01.17,0,.03,2.05,1.69,4.92,1.77.37,0,.68.2.87.51l4.02,6.92c.17.31.17.7,0,1.01Z"/>
    <path class="cls-3" d="M507.83,370.39l-31.03,35.81c-.25.28-.62.45-1.01.45-.14,0-.28-.03-.42-.08-.53-.17-.87-.65-.9-1.21l-1.18-29.99c-.03-.62.08-1.21.31-1.74l16.62-41.72c.2-.51.7-.84,1.24-.84.51-.03,1.04.31,1.24.82l15.33,37.13c.2.45.11,1.01-.2,1.38Z"/>
    <path class="cls-3" d="M414.1,288.67l-31.65,36.96c-.28.31-.68.51-1.1.51-7.71.06-10.6,7.17-10.72,7.48-.17.37-.48.68-.87.82l-33.87,12.29c-.17.08-.34.11-.51.11-.31,0-.62-.11-.87-.31-.39-.28-.62-.76-.56-1.27l3.91-56.96c.06-.76.7-1.35,1.46-1.35l73.64-.7c.56.06,1.1.34,1.32.84.25.51.17,1.12-.2,1.58Z"/>
    <path class="cls-3" d="M473.34,325.24l-14.46,35.44c-.2.51-.68.84-1.24.84l-47.82-.14c-.51,0-.96-.28-1.18-.73l-8.1-15.16c-.17-.34-.2-.76-.03-1.15.14-.37.48-.65.84-.76l70.38-20.11c.48-.14,1.01,0,1.35.39.34.37.45.93.25,1.38Z"/>
    <g>
      <path class="cls-3" d="M275.06,430.69h-.03c-1.15,0-2.08.93-2.08,2.05v2.08h2.11c-.03-1.21-.03-1.91-.03-2.08,0-.65,0-1.32.03-2.05ZM465.38,431.48c-.39-.51-.98-.79-1.63-.79v2.05c-.14.62-.31,1.27-.45,1.88,1.88-.17,2.03-.45,2.25-.87l.14-.25.11-.23v-.56c0-.42-.14-.87-.42-1.24Z"/>
      <path class="cls-3" d="M735.34,621.27c-.31,1.07-1.41,1.69-2.48,1.41-33.45-8.5-47.76,23.88-61.63,55.19-9.45,21.35-18.4,41.55-33.14,47.17-3.18,1.21-6.44,1.72-9.9,1.49,16.71,15.78,12.43,40.82,8.27,65.15-5.01,29.17-10.18,59.33,17.19,77.86.84.59,1.13,1.69.7,2.62-.37.73-1.1,1.15-1.88,1.15-.2,0-.39,0-.59-.08-53.28-16.37-80.17-50.04-93.33-75.41-12.29-23.66-15.22-44.19-15.84-50.04-257.3-41.77-269.23-285.79-269.73-312.94h2.08c-.03-1.21-.03-1.91-.03-2.08,0-.65,0-1.32.03-2.05h-.03c-1.15,0-2.08.93-2.08,2.05,0-1.83.03-4.11.08-6.67.2-13.61.65-41.94-5.18-47.4l-40.37-36.88c-1.88-1.69-2.78-4.11-2.48-6.61.28-2.5,1.72-4.64,3.91-5.88,5.85-3.26,14.94-8.35,25.29-14.12,10.38-5.79,21.97-12.26,32.88-18.34q41.66-23.21,42.9-22.48l1.1.65-5.88,79.3c0,5.68,4.16,10.63,9.9,11.65l130.69,2.11v64.64c0-.42-.14-.87-.42-1.24-.39-.51-.98-.79-1.63-.79v2.05c-.14.62-.31,1.27-.45,1.88,1.88-.17,2.03-.45,2.25-.87l.14-.25c-13.56,55.67-18.34,134.96,35.39,196.99,28.05,32.41,60.96,46.86,69.23,50.13,8.95-26.72,24.98-46.19,47.65-57.78,49.7-25.46,115.39-4.33,116.06-4.11,1.04.34,1.63,1.46,1.32,2.53Z"/>
    </g>
  </g>
</svg>